<svg xmlns="http://www.w3.org/2000/svg" xmlns:xlink="http://www.w3.org/1999/xlink" width="5000" zoomAndPan="magnify" viewBox="0 0 3750 3749.999967" height="5000" preserveAspectRatio="xMidYMid meet" version="1.0"><defs><g/><clipPath id="80fed853bd"><rect x="0" width="1906" y="0" height="3637"/></clipPath><clipPath id="b150d2ad0f"><path d="M 1532.0625 0 L 2425.859375 0 L 2425.859375 3750 L 1532.0625 3750 Z M 1532.0625 0 " clip-rule="nonzero"/></clipPath><clipPath id="adfe5e7da9"><path d="M 0.0625 0 L 893.859375 0 L 893.859375 3750 L 0.0625 3750 Z M 0.0625 0 " clip-rule="nonzero"/></clipPath><clipPath id="a9a230a04c"><rect x="0" width="894" y="0" height="3750"/></clipPath><clipPath id="34c2c76efc"><rect x="0" width="2057" y="0" height="3636"/></clipPath></defs><rect x="-375" width="4500" fill="#ffffff" y="-374.999997" height="4499.99996" fill-opacity="1"/><rect x="-375" width="4500" fill="#ffffff" y="-374.999997" height="4499.99996" fill-opacity="1"/><g transform="matrix(1, 0, 0, 1, 1655, 6)"><g clip-path="url(#80fed853bd)"><g fill="#000000" fill-opacity="1"><g transform="translate(0.835776, 2950.369078)"><g><path d="M 1077.234375 -1574.15625 C 1079.367188 -1569.882812 1081.503906 -1564.539062 1083.640625 -1558.125 L 1096.46875 -1535.703125 C 1105.019531 -1516.460938 1114.640625 -1496.15625 1125.328125 -1474.78125 C 1155.242188 -1417.070312 1185.164062 -1357.226562 1215.09375 -1295.25 C 1304.863281 -1115.707031 1387.15625 -948.988281 1461.96875 -795.09375 C 1697.070312 -327.019531 1832.789062 -61.988281 1869.125 0 L 1343.34375 0 C 1296.3125 -89.769531 1193.710938 -300.296875 1035.546875 -631.578125 C 984.253906 -740.585938 928.679688 -858.144531 868.828125 -984.25 C 847.460938 -1027 827.160156 -1069.75 807.921875 -1112.5 C 801.503906 -1127.457031 795.09375 -1142.421875 788.6875 -1157.390625 C 782.269531 -1168.078125 776.925781 -1177.691406 772.65625 -1186.234375 L 708.53125 -1102.875 L 708.53125 0 L 160.3125 0 L 160.3125 -2199.34375 L 708.53125 -2199.34375 L 708.53125 -1147.765625 L 1538.890625 -2199.34375 L 1564.546875 -2199.34375 Z M 1077.234375 -1574.15625 "/></g></g></g></g></g><g clip-path="url(#b150d2ad0f)"><g transform="matrix(1, 0, 0, 1, 1532, 0.000000000000269639)"><g clip-path="url(#a9a230a04c)"><g clip-path="url(#adfe5e7da9)"><path fill="#ffffff" d="M 0.0625 -31.378906 L 893.859375 -31.378906 L 893.859375 3816.140625 L 0.0625 3816.140625 Z M 0.0625 -31.378906 " fill-opacity="1" fill-rule="nonzero"/></g></g></g></g><g transform="matrix(1, 0, 0, 1, 323, 7)"><g clip-path="url(#34c2c76efc)"><g fill="#000000" fill-opacity="1"><g transform="translate(1.465105, 2949.478066)"><g><path d="M 846.40625 -2199.359375 C 1222.582031 -2199.359375 1519.675781 -2085.007812 1737.6875 -1856.3125 C 1934.320312 -1651.125 2033.707031 -1398.910156 2035.84375 -1099.671875 C 2037.988281 -802.578125 1947.148438 -550.367188 1763.328125 -343.046875 C 1558.140625 -114.347656 1284.554688 0 942.578125 0 L 160.296875 0 L 160.296875 -2199.359375 Z M 708.546875 -28.859375 C 967.160156 -28.859375 1162.726562 -140 1295.25 -362.28125 C 1414.9375 -558.925781 1467.300781 -804.722656 1452.34375 -1099.671875 C 1437.382812 -1386.085938 1364.710938 -1631.890625 1234.328125 -1837.078125 C 1093.265625 -2059.359375 918.003906 -2170.5 708.546875 -2170.5 Z M 708.546875 -28.859375 "/></g></g></g></g></g></svg>